<svg xmlns="http://www.w3.org/2000/svg" viewBox="0 0 311.5 311.5"><defs><style>.cls-1,.cls-4{fill:#231f20;}.cls-1,.cls-2,.cls-3,.cls-4{stroke:#231f20;}.cls-1,.cls-2,.cls-3{stroke-miterlimit:10;}.cls-2{fill:#fff;}.cls-3{fill:#f9ed32;}.cls-4{stroke-linecap:round;stroke-linejoin:round;stroke-width:0.5px;}</style></defs><g id="Layer_2" data-name="Layer 2"><g id="Layer_2-2" data-name="Layer 2"><ellipse class="cls-1" cx="155.56" cy="244.25" rx="66.75" ry="33.38" transform="translate(-89.01 399.3) rotate(-89.88)"/><ellipse class="cls-2" cx="155.56" cy="244.25" rx="50.63" ry="25.31" transform="translate(-89.01 399.3) rotate(-89.88)"/><ellipse class="cls-1" cx="155.93" cy="67.25" rx="66.75" ry="33.38" transform="translate(88.36 223.04) rotate(-89.88)"/><ellipse class="cls-2" cx="155.93" cy="67.25" rx="50.63" ry="25.31" transform="translate(88.36 223.04) rotate(-89.88)"/><ellipse class="cls-1" cx="67.25" cy="155.21" rx="33.38" ry="66.75" transform="translate(-88.37 221.52) rotate(-89.65)"/><ellipse class="cls-2" cx="65.51" cy="154.72" rx="25.8" ry="52.36" transform="translate(-89.6 219.29) rotate(-89.65)"/><ellipse class="cls-1" cx="244.25" cy="156.29" rx="33.38" ry="66.75" transform="matrix(0.01, -1, 1, 0.01, 86.48, 399.58)"/><ellipse class="cls-2" cx="244.25" cy="156.29" rx="25.31" ry="50.63" transform="translate(86.48 399.58) rotate(-89.65)"/><ellipse class="cls-1" cx="219.42" cy="219.22" rx="33.38" ry="66.75" transform="translate(-90.68 225.76) rotate(-46.18)"/><ellipse class="cls-2" cx="219.42" cy="219.22" rx="25.31" ry="50.63" transform="translate(-90.68 225.76) rotate(-46.18)"/><ellipse class="cls-1" cx="91.71" cy="96.67" rx="33.38" ry="66.75" transform="translate(-41.54 95.91) rotate(-46.18)"/><ellipse class="cls-2" cx="91.71" cy="96.67" rx="25.31" ry="50.63" transform="translate(-41.54 95.91) rotate(-46.18)"/><ellipse class="cls-1" cx="94.03" cy="221.56" rx="66.75" ry="33.38" transform="translate(-130.59 135.11) rotate(-45.95)"/><ellipse class="cls-2" cx="94.03" cy="221.56" rx="50.63" ry="25.31" transform="translate(-130.59 135.11) rotate(-45.95)"/><ellipse class="cls-1" cx="217.09" cy="94.33" rx="66.75" ry="33.38" transform="translate(-1.64 184.79) rotate(-45.95)"/><ellipse class="cls-2" cx="217.09" cy="94.33" rx="50.63" ry="25.31" transform="translate(-1.64 184.79) rotate(-45.95)"/></g><g id="Layer_1-2" data-name="Layer 1"><circle class="cls-1" cx="155.56" cy="157.95" r="66.75"/><circle class="cls-3" cx="155.56" cy="157.95" r="50.63"/></g><g id="Layer_3" data-name="Layer 3"><text/><circle class="cls-4" cx="154.47" cy="186.75" r="7.15" transform="translate(-59.71 73.33) rotate(-22.5)"/><path class="cls-4" d="M150.23,165.87c.08.27,1.11,3.43,3,3.63,2.18.22,3.91-3.54,4.24-4.24,2.65-5.74-1-9.19,1.21-13.11,1.64-2.87,4-1.6,9.88-5.44,3.45-2.24,8.17-5.3,8.87-10.29.55-3.88-1.61-7.06-2.42-8.27a16.54,16.54,0,0,0-9.9-6.47c-5.28-1.36-9.42,0-15.91,2.24-6.09,2.06-11.5,3.9-12.3,7.86-.41,2,.39,4.55,2,5.45s3.87-.12,6.86-1.61c4.16-2.09,4.06-3.16,7.26-4.64,1.58-.73,5.85-2.71,9.88-1,.95.4,3.18,1.34,3.43,3,.29,1.92-2.2,3.42-8.27,8.27-3.62,2.9-5.43,4.35-6.05,5C149.59,149.05,147.5,154.38,150.23,165.87Z"/></g></g></svg>