<svg xmlns="http://www.w3.org/2000/svg" viewBox="0 0 506.06 177.62"><defs><style>.cls-1{fill:#006838;}</style></defs><g id="Layer_2" data-name="Layer 2"><g id="Layer_1-2" data-name="Layer 1"><path class="cls-1" d="M165.16,160.74c-27.11,4.3-22.81,10-46.85,12.19-14.24,1.3-77.11,7-105.19-33.91-29.68-43.29-4.69-115.2,32-131,11.71-5,41,1.9,99,16,49.44,12,53.42,14.7,67,13C253,31.79,257.89.93,292.12,0c34-.9,36.77,29.38,78,35,42.6,5.8,59.33-23.84,92-11,23.8,9.36,33.18,35.87,37,46,.26.67.65,1.72,1.13,3.09,7.53,21.39,9,52.72-3.13,67.91-10.71,13.44-25.5,5.94-67,12-47,6.86-58.21,20.89-78,24a62.77,62.77,0,0,1-17,0C278.27,171.66,222.78,151.59,165.16,160.74Z"/></g></g></svg>